<svg xmlns="http://www.w3.org/2000/svg" width="22" height="22" viewBox="0 0 22 22">
    <path fill="#999" fill-rule="nonzero" d="M2.423 2.423A8.218 8.218 0 0 1 8.273 0c2.21 0 4.287.86 5.85 2.423a8.219 8.219 0 0 1 2.422 5.85 8.222 8.222 0 0 1-1.152 4.217l6.021 6.02c.378.379.586.88.586 1.415 0 .534-.208 1.037-.586 1.414l-.075.075c-.377.378-.88.586-1.414.586a1.987 1.987 0 0 1-1.414-.586l-6.021-6.02a8.221 8.221 0 0 1-4.217 1.151c-2.21 0-4.288-.86-5.85-2.423A8.218 8.218 0 0 1 0 8.272c0-2.209.86-4.286 2.423-5.849zm17.098 17.981a.568.568 0 0 0 .808 0l.075-.075a.568.568 0 0 0 0-.808l-5.856-5.857a8.474 8.474 0 0 1-.883.883l5.856 5.857zM3.433 13.112a6.8 6.8 0 0 0 4.84 2.005 6.799 6.799 0 0 0 4.84-2.005 6.799 6.799 0 0 0 2.004-4.84 6.8 6.8 0 0 0-2.005-4.839 6.799 6.799 0 0 0-4.84-2.004 6.8 6.8 0 0 0-4.839 2.004 6.8 6.8 0 0 0-2.004 4.84 6.8 6.8 0 0 0 2.004 4.84z"/>
</svg>
