<svg xmlns="http://www.w3.org/2000/svg" width="17" height="17" viewBox="0 0 17 17">
    <path fill="#000" fill-rule="nonzero" d="M16.612 2.79a1.305 1.305 0 0 0-.92-.361h-1.307v-.911c0-.417-.16-.775-.48-1.072A1.637 1.637 0 0 0 12.75 0h-.654c-.45 0-.834.149-1.154.446-.32.297-.48.655-.48 1.072v.91H6.539v-.91c0-.417-.16-.775-.48-1.072A1.637 1.637 0 0 0 4.903 0H4.25c-.45 0-.834.149-1.154.446-.32.297-.48.655-.48 1.072v.91H1.307c-.354 0-.66.12-.92.361C.13 3.03 0 3.314 0 3.643v12.143c0 .328.13.613.388.854.259.24.565.36.92.36h14.384c.354 0 .661-.12.92-.36s.388-.526.388-.854V3.643c0-.329-.13-.614-.388-.854zM4.25 15.785H1.308v-2.733H4.25v2.733zm0-3.34H1.308V9.411H4.25v3.035zm0-3.643H1.308V6.071H4.25v2.732zm-.23-4.34a.282.282 0 0 1-.097-.213V1.518c0-.082.033-.153.097-.213a.326.326 0 0 1 .23-.09h.654c.088 0 .165.03.23.09.064.06.097.13.097.213V4.25a.282.282 0 0 1-.097.213.326.326 0 0 1-.23.09H4.25a.326.326 0 0 1-.23-.09zm4.153 11.323h-3.27v-2.733h3.27v2.733zm0-3.34h-3.27V9.411h3.27v3.035zm0-3.643h-3.27V6.071h3.27v2.732zm3.923 6.983H8.827v-2.733h3.27v2.733zm0-3.34H8.827V9.411h3.27v3.035zm0-3.643H8.827V6.071h3.27v2.732zm-.23-4.34a.282.282 0 0 1-.096-.213V1.518c0-.082.032-.153.096-.213a.326.326 0 0 1 .23-.09h.654c.089 0 .165.03.23.09s.097.13.097.213V4.25a.282.282 0 0 1-.097.213.326.326 0 0 1-.23.09h-.654a.326.326 0 0 1-.23-.09zm3.826 11.323H12.75v-2.733h2.942v2.733zm0-3.34H12.75V9.411h2.942v3.035zm0-3.643H12.75V6.071h2.942v2.732z"/>
</svg>
