<svg xmlns="http://www.w3.org/2000/svg" width="18" height="18" viewBox="0 0 18 18">
    <g fill="none" fill-rule="evenodd">
        <path fill="#FFC709" d="M0 9c0 1.16 1.096 2.092 1.515 3.1.433 1.045.334 2.476 1.121 3.264.788.787 2.219.688 3.263 1.121C6.909 16.904 7.841 18 9 18c1.16 0 2.093-1.096 3.1-1.515 1.045-.433 2.476-.334 3.264-1.121.787-.788.688-2.219 1.121-3.264C16.904 11.093 18 10.16 18 9c0-1.16-1.096-2.093-1.515-3.1-.433-1.045-.334-2.476-1.121-3.264-.788-.787-2.219-.688-3.263-1.121C11.093 1.096 10.159 0 9 0 7.84 0 6.908 1.096 5.9 1.515c-1.045.433-2.476.334-3.264 1.121-.787.788-.688 2.219-1.121 3.263C1.096 6.907 0 7.841 0 9"/>
        <path fill="#000" fill-rule="nonzero" d="M10.897 9.053c-.346-.319-.871-.6-1.568-.832-.68-.225-.961-.413-1.078-.533-.146-.148-.213-.338-.213-.6 0-.27.083-.486.253-.656.166-.167.433-.252.791-.252.337 0 .586.1.765.307.187.22.284.516.284.882 0 .204.167.371.37.371h.53c.154 0 .29-.091.364-.285l.016-.105c.011-.686-.167-1.248-.525-1.669a2.083 2.083 0 0 0-1.184-.683v-.627A.371.371 0 0 0 9.331 4h-.478a.371.371 0 0 0-.37.371v.624c-.473.093-.864.296-1.17.607-.381.388-.573.892-.573 1.496 0 .633.196 1.137.586 1.5.351.325.884.602 1.57.821.642.23.93.426 1.057.55.153.15.225.333.225.577a.81.81 0 0 1-.284.644c-.39.35-1.27.364-1.765-.019-.218-.17-.33-.474-.33-.902a.372.372 0 0 0-.37-.371h-.526a.378.378 0 0 0-.338.221l-.045.097v.074c-.015.771.21 1.365.668 1.764.354.31.783.509 1.28.593v.554c0 .204.166.371.37.371h.478a.372.372 0 0 0 .372-.37v-.566c.482-.093.882-.29 1.194-.591.398-.38.6-.888.6-1.509 0-.629-.198-1.127-.585-1.483z"/>
    </g>
</svg>
