<svg xmlns="http://www.w3.org/2000/svg" width="24" height="32" viewBox="0 0 24 32">
    <path fill="#666" fill-rule="evenodd" d="M18.333 0H1.991C.894 0 0 .881 0 1.962v28.075C0 31.12.894 32 1.99 32H22.01a2 2 0 0 0 1.403-.57c.363-.356.588-.849.588-1.393V6.068L18.333 0zm.45 2.065l3.13 3.096h-3.13V2.065zm4.174 28.574c0 .18-.153.329-.34.329H1.382a.334.334 0 0 1-.339-.329V1.36c0-.18.152-.327.339-.327h16.06V6.01c0 .474.399.859.888.859h4.627v23.771zM3.807 8.26H19.15c.374 0 .677.23.677.515 0 .285-.303.516-.677.516H3.807c-.373 0-.677-.23-.677-.516 0-.285.304-.516.677-.516zm16.02 4.644c0 .285-.304.516-.678.516H3.807c-.373 0-.677-.23-.677-.516 0-.285.304-.516.677-.516H19.15c.374 0 .677.231.677.516zm0 4.13c0 .284-.304.515-.678.515H3.807c-.373 0-.677-.23-.677-.516 0-.285.304-.516.677-.516H19.15c.374 0 .677.231.677.516zm0 4.128c0 .285-.304.516-.678.516H3.807c-.373 0-.677-.23-.677-.516 0-.285.304-.516.677-.516H19.15c.374 0 .677.231.677.516z"/>
</svg>
