<svg xmlns="http://www.w3.org/2000/svg" width="18" height="18" viewBox="0 0 18 18">
    <g fill="none" fill-rule="evenodd">
        <path fill="#FFC709" d="M0 9c0 1.16 1.096 2.092 1.515 3.1.433 1.045.334 2.476 1.121 3.264.788.787 2.219.688 3.263 1.121C6.909 16.904 7.841 18 9 18c1.16 0 2.093-1.096 3.1-1.515 1.045-.433 2.476-.334 3.264-1.121.787-.788.688-2.219 1.121-3.264C16.904 11.093 18 10.16 18 9c0-1.16-1.096-2.093-1.515-3.1-.433-1.045-.334-2.476-1.121-3.264-.788-.787-2.219-.688-3.263-1.121C11.093 1.096 10.159 0 9 0 7.84 0 6.908 1.096 5.9 1.515c-1.045.433-2.476.334-3.264 1.121-.787.788-.688 2.219-1.121 3.263C1.096 6.907 0 7.841 0 9"/>
        <path fill="#000" fill-rule="nonzero" d="M13.053 5.407c-.099-.078-2.43-1.892-4.207-.884-.952.54-1.96.272-2.412.101V4H5.5v10h.934v-3.941c.685.2 1.785.342 2.873-.275 1.022-.58 2.632.384 3.166.804a.466.466 0 0 0 .757-.366v-4.45a.467.467 0 0 0-.177-.365zm-.757 3.95c-.853-.483-2.273-1.053-3.45-.385-.951.54-1.96.273-2.412.101V5.61c.685.2 1.785.343 2.873-.275.926-.525 2.335.217 2.989.673v3.35z"/>
    </g>
</svg>
