<svg xmlns="http://www.w3.org/2000/svg" width="218" height="218" viewBox="0 0 218 218">
    <g fill="none" fill-rule="evenodd">
        <path fill="#FFF" d="M-357-254h1440V766H-357z"/>
        <path fill="#DDD" d="M100 109c0 1.16 1.096 2.092 1.515 3.1.433 1.045.334 2.476 1.121 3.264.788.787 2.219.688 3.264 1.121 1.007.419 1.94 1.515 3.1 1.515 1.16 0 2.093-1.096 3.1-1.515 1.045-.433 2.476-.334 3.264-1.121.787-.788.688-2.219 1.121-3.264.419-1.007 1.515-1.94 1.515-3.1 0-1.16-1.096-2.093-1.515-3.1-.433-1.045-.334-2.476-1.121-3.264-.788-.787-2.219-.688-3.264-1.121-1.007-.419-1.94-1.515-3.1-1.515-1.16 0-2.092 1.096-3.1 1.515-1.045.433-2.476.334-3.264 1.121-.787.788-.688 2.219-1.121 3.264-.419 1.007-1.515 1.94-1.515 3.1"/>
        <path fill="#999" d="M111.069 109.502h-3.096v3.56H107V105h4.57v.875h-3.597v2.758h3.096z"/>
    </g>
</svg>
