<svg xmlns="http://www.w3.org/2000/svg" width="18" height="18" viewBox="0 0 18 18">
    <g fill="none" fill-rule="evenodd">
        <path fill="#FFC709" d="M0 9c0 1.16 1.096 2.092 1.515 3.1.433 1.045.334 2.476 1.121 3.264.788.787 2.219.688 3.263 1.121C6.909 16.904 7.841 18 9 18c1.16 0 2.093-1.096 3.1-1.515 1.045-.433 2.476-.334 3.264-1.121.787-.788.688-2.219 1.121-3.264C16.904 11.093 18 10.16 18 9c0-1.16-1.096-2.093-1.515-3.1-.433-1.045-.334-2.476-1.121-3.264-.788-.787-2.219-.688-3.263-1.121C11.093 1.096 10.159 0 9 0 7.84 0 6.908 1.096 5.9 1.515c-1.045.433-2.476.334-3.264 1.121-.787.788-.688 2.219-1.121 3.263C1.096 6.907 0 7.841 0 9"/>
        <path fill="#000" fill-rule="nonzero" d="M11.986 10.271c-.026-.084-.112-.226-.392-.23l-1.428-.022c-.148-.002-.326-.138-.374-.284L9.33 8.319C9.24 8.042 9.084 8 9 8c-.084 0-.24.042-.33.319l-.46 1.415c-.049.146-.228.283-.377.284l-1.428.022c-.28.005-.366.147-.391.23-.027.085-.037.252.187.428l1.143.896a.488.488 0 0 1 .144.462l-.422 1.427c-.05.167-.041.302.028.4.102.145.3.16.506.007l1.17-.861a.447.447 0 0 1 .462 0l1.167.86c.101.075.192.111.28.111a.276.276 0 0 0 .227-.117c.068-.098.078-.232.028-.4l-.42-1.428a.485.485 0 0 1 .142-.46l1.145-.898c.222-.175.212-.343.185-.426z"/>
        <path fill="#000" fill-rule="nonzero" d="M8.765 7.893c.19.143.499.143.688 0l1.206-1.012c.189-.143.341-.44.341-.662V4.402C11 4.18 10.804 4 10.556 4H7.45C7.204 4 7 4.18 7 4.402v1.817c0 .222.155.519.344.662l1.42 1.012z"/>
    </g>
</svg>
