<?xml version="1.0" encoding="UTF-8"?>
<svg width="22px" height="22px" viewBox="0 0 22 22" version="1.1" xmlns="http://www.w3.org/2000/svg" xmlns:xlink="http://www.w3.org/1999/xlink">
    <!-- Generator: Sketch 51.3 (57544) - http://www.bohemiancoding.com/sketch -->
    <title>closeSearch</title>
    <desc>Created with Sketch.</desc>
    <defs></defs>
    <g id="closeSearch" stroke="none" stroke-width="1" fill="none" fill-rule="evenodd">
        <polygon id="Shape" fill="#999999" fill-rule="nonzero" points="13.3333595 8 11 10.3333301 8.66664047 8 8 8.66664047 10.3333301 11 8 13.3333595 8.66664047 14 11 11.6666699 13.3333595 14 14 13.3333595 11.6666699 11 14 8.66664047"></polygon>
        <path d="M11,3 C6.58153125,3 3,6.58153125 3,11 C3,15.4184687 6.58153125,19 11,19 C15.4184687,19 19,15.4184687 19,11 C19,6.58153125 15.4184687,3 11,3 Z M11,17.75 C7.27196875,17.75 4.25,14.7280312 4.25,11 C4.25,7.27196875 7.27196875,4.25 11,4.25 C14.7280312,4.25 17.75,7.27196875 17.75,11 C17.75,14.7280312 14.7280312,17.75 11,17.75 Z" id="Shape" fill="#999999" fill-rule="nonzero"></path>
    </g>
</svg>