<svg xmlns="http://www.w3.org/2000/svg" width="18" height="18" viewBox="0 0 18 18">
    <g fill="none" fill-rule="evenodd">
        <path fill="#FF1E04" d="M0 9c0 1.16 1.096 2.092 1.515 3.1.433 1.045.334 2.476 1.121 3.264.788.787 2.219.688 3.263 1.121C6.909 16.904 7.841 18 9 18c1.16 0 2.093-1.096 3.1-1.515 1.045-.433 2.476-.334 3.264-1.121.787-.788.688-2.219 1.121-3.264C16.904 11.093 18 10.16 18 9c0-1.16-1.096-2.093-1.515-3.1-.433-1.045-.334-2.476-1.121-3.264-.788-.787-2.219-.688-3.263-1.121C11.093 1.096 10.159 0 9 0 7.84 0 6.908 1.096 5.9 1.515c-1.045.433-2.476.334-3.264 1.121-.787.788-.688 2.219-1.121 3.263C1.096 6.907 0 7.841 0 9"/>
        <path fill="#202123" d="M12.027 13.444l-.762-.782c-.501.3-1.033.461-1.755.461C7.384 13.123 6 11.52 6 9.052 6 6.615 7.344 5 9.51 5 11.646 5 13 6.585 13 9.062c0 1.424-.511 2.507-1.093 3.068l.702.732c.08.07.11.15.11.241a.4.4 0 0 1-.15.301c-.09.08-.2.14-.311.14a.32.32 0 0 1-.23-.1zm-1.424-1.454l-.662-.672a.297.297 0 0 1-.11-.23c0-.11.06-.221.16-.311.08-.09.19-.14.301-.14.08 0 .17.03.241.11l.702.721c.501-.541.772-1.363.772-2.457 0-1.885-.953-3.149-2.497-3.149-1.564 0-2.517 1.274-2.517 3.2 0 1.935.993 3.189 2.517 3.189.441 0 .792-.09 1.093-.261z"/>
    </g>
</svg>
