<svg xmlns="http://www.w3.org/2000/svg" width="218" height="218" viewBox="0 0 218 218">
    <g fill="none" fill-rule="evenodd">
        <path fill="#FFF" d="M-397-254h1440V766H-397z"/>
        <path fill="#DDD" d="M100 109c0 1.16 1.096 2.092 1.515 3.1.433 1.045.334 2.476 1.121 3.264.788.787 2.219.688 3.264 1.121 1.007.419 1.94 1.515 3.1 1.515 1.16 0 2.093-1.096 3.1-1.515 1.045-.433 2.476-.334 3.264-1.121.787-.788.688-2.219 1.121-3.264.419-1.007 1.515-1.94 1.515-3.1 0-1.16-1.096-2.093-1.515-3.1-.433-1.045-.334-2.476-1.121-3.264-.788-.787-2.219-.688-3.264-1.121-1.007-.419-1.94-1.515-3.1-1.515-1.16 0-2.092 1.096-3.1 1.515-1.045.433-2.476.334-3.264 1.121-.787.788-.688 2.219-1.121 3.264-.419 1.007-1.515 1.94-1.515 3.1"/>
        <path fill="#999" d="M108.962 109.8h-1.894v3.26H106V105h2.668c.908 0 1.607.207 2.096.62.489.413.733 1.015.733 1.805 0 .502-.135.939-.407 1.312-.27.373-.648.651-1.132.836l1.894 3.421v.066h-1.14l-1.75-3.26zm-1.894-.87h1.634c.527 0 .947-.136 1.259-.41.312-.272.468-.638.468-1.095 0-.498-.149-.88-.446-1.146-.297-.266-.726-.4-1.287-.404h-1.628v3.056z"/>
    </g>
</svg>
