<svg xmlns="http://www.w3.org/2000/svg" width="18" height="18" viewBox="0 0 18 18">
    <g fill="none" fill-rule="evenodd">
        <path fill="#FFC709" d="M1.515 12.1c.433 1.045.334 2.476 1.121 3.264.788.787 2.219.688 3.263 1.121C6.909 16.904 7.841 18 9 18c1.16 0 2.093-1.096 3.1-1.515 1.045-.433 2.476-.334 3.264-1.121.787-.788.688-2.219 1.121-3.264C16.904 11.093 18 10.16 18 9c0-1.16-1.096-2.093-1.515-3.1-.433-1.045-.334-2.476-1.121-3.264-.788-.787-2.219-.688-3.263-1.121C11.093 1.096 10.159 0 9 0 7.84 0 6.908 1.096 5.9 1.515c-1.045.433-2.476.334-3.264 1.121-.787.788-.688 2.219-1.121 3.263C1.096 6.907 0 7.841 0 9c0 1.16 1.096 2.092 1.515 3.1z"/>
        <path fill="#000" d="M11.973 6.442h-1.74v5.72c0 .33-.074.574-.22.733a.739.739 0 0 1-.57.24.75.75 0 0 1-.578-.242c-.148-.162-.222-.405-.222-.73V6.441h-1.74c-.273 0-.475-.06-.608-.18a.61.61 0 0 1-.198-.475c0-.204.069-.366.206-.484.138-.118.338-.177.6-.177h5.07c.275 0 .48.06.615.183a.615.615 0 0 1 .201.478.603.603 0 0 1-.204.475c-.136.12-.34.18-.612.18z"/>
    </g>
</svg>
