<svg xmlns="http://www.w3.org/2000/svg" width="18" height="18" viewBox="0 0 18 18">
    <g fill="none" fill-rule="evenodd">
        <path fill="#9AE352" d="M0 9c0 1.16 1.096 2.092 1.515 3.1.433 1.045.334 2.476 1.121 3.264.788.787 2.219.688 3.263 1.121C6.909 16.904 7.841 18 9 18c1.16 0 2.093-1.096 3.1-1.515 1.045-.433 2.476-.334 3.264-1.121.787-.788.688-2.219 1.121-3.264C16.904 11.093 18 10.16 18 9c0-1.16-1.096-2.093-1.515-3.1-.433-1.045-.334-2.476-1.121-3.264-.788-.787-2.219-.688-3.263-1.121C11.093 1.096 10.159 0 9 0 7.84 0 6.908 1.096 5.9 1.515c-1.045.433-2.476.334-3.264 1.121-.787.788-.688 2.219-1.121 3.263C1.096 6.907 0 7.841 0 9"/>
        <path fill="#18191A" d="M14.382 7.313l-1.139-1.14-5.983 5.983 1.14 1.14z"/>
        <path fill="#18191A" d="M4.692 9.857l1.14-1.14 3.438 3.44-1.139 1.138z"/>
    </g>
</svg>
