<svg xmlns="http://www.w3.org/2000/svg" width="18" height="18" viewBox="0 0 18 18">
    <g fill="none" fill-rule="evenodd">
        <path fill="#E64230" d="M0 9c0 1.16 1.096 2.092 1.515 3.1.433 1.045.334 2.476 1.121 3.264.788.787 2.219.688 3.263 1.121C6.909 16.904 7.841 18 9 18c1.16 0 2.093-1.096 3.1-1.515 1.045-.433 2.476-.334 3.264-1.121.787-.788.688-2.219 1.121-3.264C16.904 11.093 18 10.16 18 9c0-1.16-1.096-2.093-1.515-3.1-.433-1.045-.334-2.476-1.121-3.264-.788-.787-2.219-.688-3.263-1.121C11.093 1.096 10.159 0 9 0 7.84 0 6.908 1.096 5.9 1.515c-1.045.433-2.476.334-3.264 1.121-.787.788-.688 2.219-1.121 3.263C1.096 6.907 0 7.841 0 9"/>
        <path fill="#18191A" d="M12.465 10.422c0 .52-.134.986-.402 1.4-.267.414-.659.739-1.174.973-.516.234-1.127.351-1.834.351-.848 0-1.547-.16-2.098-.48a2.795 2.795 0 0 1-.952-.923c-.244-.385-.366-.759-.366-1.122 0-.21.073-.392.22-.542a.748.748 0 0 1 .559-.225c.184 0 .339.058.466.175.127.117.235.291.325.522.11.273.228.502.354.685.127.184.306.335.537.454.23.12.533.18.908.18.515 0 .934-.121 1.257-.361.322-.24.483-.54.483-.9 0-.285-.087-.516-.26-.694a1.681 1.681 0 0 0-.675-.407 11.588 11.588 0 0 0-1.104-.299c-.617-.145-1.134-.313-1.55-.507a2.505 2.505 0 0 1-.99-.79c-.244-.335-.366-.75-.366-1.246 0-.473.129-.893.386-1.26.258-.367.631-.65 1.12-.846.488-.198 1.062-.296 1.722-.296.528 0 .984.065 1.368.196.385.13.705.305.958.521.254.217.44.445.557.683.117.238.176.47.176.697a.824.824 0 0 1-.22.56.7.7 0 0 1-.548.249c-.199 0-.35-.05-.454-.15a2.013 2.013 0 0 1-.337-.489 2.218 2.218 0 0 0-.562-.759c-.219-.181-.57-.272-1.055-.272-.45 0-.811.099-1.087.296-.275.197-.413.434-.413.712 0 .172.047.32.14.445.094.125.223.233.387.322.164.09.33.16.498.211.168.051.446.125.832.223.485.113.923.238 1.316.375.392.137.726.303 1.002.498.275.195.49.442.644.741.155.3.232.665.232 1.099z"/>
    </g>
</svg>
